<svg xmlns="http://www.w3.org/2000/svg" viewBox="0 0 24 24" fill="none">
  <path d="M22 16.74V4.67C22 3.47 21.02 2.58 19.83 2.68H19.77C17.67 2.84 14.46 3.93 12.67 5.05L12.5 5.16C12.23 5.33 11.78 5.33 11.51 5.16L11.26 5.01C9.47 3.9 6.27 2.82 4.17 2.67C2.98 2.57 2 3.47 2 4.66V16.74C2 17.7 2.78 18.6 3.74 18.72L4.03 18.76C6.2 19.05 9.55 20.15 11.5 21.2L11.54 21.22C11.79 21.36 12.2 21.36 12.44 21.22C14.39 20.16 17.75 19.05 19.93 18.76L20.26 18.72C21.22 18.6 22 17.7 22 16.74Z" fill="#000000" stroke="#000000" stroke-width="1.5" stroke-linecap="round" stroke-linejoin="round"/>
  <path d="M12 5.49v15" stroke="#ffffff" stroke-width="1.5" stroke-linecap="round" stroke-linejoin="round"/>
</svg>
